<svg width="473" height="88" viewBox="0 0 473 88" fill="none" xmlns="http://www.w3.org/2000/svg">
<path d="M102.39 20.16H120.73C128.897 20.16 135.22 22.33 139.7 26.67C144.227 31.01 146.49 37.1233 146.49 45.01C146.49 52.9433 144.227 59.1033 139.7 63.49C135.22 67.83 128.897 70 120.73 70H102.39V20.16ZM120.17 62.65C131.65 62.65 137.39 56.77 137.39 45.01C137.39 33.3433 131.65 27.51 120.17 27.51H111.42V62.65H120.17ZM171.11 70.56C167.517 70.56 164.344 69.8133 161.59 68.32C158.884 66.8267 156.784 64.7033 155.29 61.95C153.844 59.15 153.12 55.8833 153.12 52.15C153.12 48.4167 153.844 45.1733 155.29 42.42C156.784 39.62 158.884 37.4733 161.59 35.98C164.344 34.4867 167.517 33.74 171.11 33.74C174.657 33.74 177.784 34.4867 180.49 35.98C183.197 37.4733 185.274 39.62 186.72 42.42C188.214 45.1733 188.96 48.4167 188.96 52.15C188.96 55.8833 188.214 59.15 186.72 61.95C185.274 64.7033 183.197 66.8267 180.49 68.32C177.784 69.8133 174.657 70.56 171.11 70.56ZM171.04 63.7C174.027 63.7 176.29 62.7433 177.83 60.83C179.417 58.87 180.21 55.9767 180.21 52.15C180.21 48.37 179.417 45.5 177.83 43.54C176.244 41.5333 174.004 40.53 171.11 40.53C168.17 40.53 165.907 41.5333 164.32 43.54C162.734 45.5 161.94 48.37 161.94 52.15C161.94 55.9767 162.71 58.87 164.25 60.83C165.837 62.7433 168.1 63.7 171.04 63.7ZM212.536 70.56C208.849 70.56 205.653 69.8133 202.946 68.32C200.239 66.8267 198.163 64.7267 196.716 62.02C195.269 59.2667 194.546 56.0467 194.546 52.36C194.546 48.6733 195.293 45.43 196.786 42.63C198.326 39.83 200.473 37.66 203.226 36.12C206.026 34.5333 209.246 33.74 212.886 33.74C215.406 33.74 217.833 34.1367 220.166 34.93C222.546 35.7233 224.436 36.82 225.836 38.22L223.386 44.38C221.893 43.1667 220.306 42.2567 218.626 41.65C216.946 40.9967 215.289 40.67 213.656 40.67C210.483 40.67 208.009 41.6733 206.236 43.68C204.463 45.64 203.576 48.4867 203.576 52.22C203.576 55.9533 204.439 58.8 206.166 60.76C207.939 62.72 210.436 63.7 213.656 63.7C215.289 63.7 216.946 63.3733 218.626 62.72C220.306 62.0667 221.893 61.1333 223.386 59.92L225.836 66.08C224.343 67.48 222.406 68.5767 220.026 69.37C217.646 70.1633 215.149 70.56 212.536 70.56ZM243.046 41.23V57.05C243.046 61.2033 244.983 63.28 248.856 63.28C249.93 63.28 251.096 63.0933 252.356 62.72V69.65C250.816 70.21 248.95 70.49 246.756 70.49C242.743 70.49 239.663 69.37 237.516 67.13C235.37 64.89 234.296 61.67 234.296 57.47V41.23H227.506V34.65H234.296V26.04L243.046 23.1V34.65H252.426V41.23H243.046ZM274.47 70.56C270.876 70.56 267.703 69.8133 264.95 68.32C262.243 66.8267 260.143 64.7033 258.65 61.95C257.203 59.15 256.48 55.8833 256.48 52.15C256.48 48.4167 257.203 45.1733 258.65 42.42C260.143 39.62 262.243 37.4733 264.95 35.98C267.703 34.4867 270.876 33.74 274.47 33.74C278.016 33.74 281.143 34.4867 283.85 35.98C286.556 37.4733 288.633 39.62 290.08 42.42C291.573 45.1733 292.32 48.4167 292.32 52.15C292.32 55.8833 291.573 59.15 290.08 61.95C288.633 64.7033 286.556 66.8267 283.85 68.32C281.143 69.8133 278.016 70.56 274.47 70.56ZM274.4 63.7C277.386 63.7 279.65 62.7433 281.19 60.83C282.776 58.87 283.57 55.9767 283.57 52.15C283.57 48.37 282.776 45.5 281.19 43.54C279.603 41.5333 277.363 40.53 274.47 40.53C271.53 40.53 269.266 41.5333 267.68 43.54C266.093 45.5 265.3 48.37 265.3 52.15C265.3 55.9767 266.07 58.87 267.61 60.83C269.196 62.7433 271.46 63.7 274.4 63.7ZM318.905 33.81C320.259 33.81 321.425 33.9967 322.405 34.37L322.335 42.35C320.842 41.7433 319.302 41.44 317.715 41.44C314.729 41.44 312.442 42.3033 310.855 44.03C309.315 45.7567 308.545 48.0433 308.545 50.89V70H299.865V44.66C299.865 40.9267 299.679 37.59 299.305 34.65H307.495L308.195 40.88C309.082 38.5933 310.482 36.8433 312.395 35.63C314.309 34.4167 316.479 33.81 318.905 33.81ZM327.278 34.65H335.958V70H327.278V34.65ZM336.448 18.62V27.23H326.718V18.62H336.448ZM365.76 33.74C374.206 33.74 378.43 38.5933 378.43 48.3V70H369.68V48.72C369.68 45.92 369.143 43.89 368.07 42.63C366.996 41.3233 365.34 40.67 363.1 40.67C360.44 40.67 358.293 41.5333 356.66 43.26C355.026 44.94 354.21 47.18 354.21 49.98V70H345.53V44.66C345.53 40.9267 345.343 37.59 344.97 34.65H353.16L353.79 40.46C355.003 38.3133 356.636 36.6567 358.69 35.49C360.79 34.3233 363.146 33.74 365.76 33.74ZM407.937 33.74C416.384 33.74 420.607 38.5933 420.607 48.3V70H411.857V48.72C411.857 45.92 411.321 43.89 410.247 42.63C409.174 41.3233 407.517 40.67 405.277 40.67C402.617 40.67 400.471 41.5333 398.837 43.26C397.204 44.94 396.387 47.18 396.387 49.98V70H387.707V44.66C387.707 40.9267 387.521 37.59 387.147 34.65H395.337L395.967 40.46C397.181 38.3133 398.814 36.6567 400.867 35.49C402.967 34.3233 405.324 33.74 407.937 33.74ZM463.695 34.65V70H455.085V64.33C454.012 66.29 452.472 67.83 450.465 68.95C448.458 70.0233 446.172 70.56 443.605 70.56C440.525 70.56 437.795 69.8133 435.415 68.32C433.035 66.8267 431.192 64.7033 429.885 61.95C428.578 59.1967 427.925 56 427.925 52.36C427.925 48.72 428.578 45.5 429.885 42.7C431.238 39.8533 433.105 37.66 435.485 36.12C437.865 34.5333 440.572 33.74 443.605 33.74C446.172 33.74 448.458 34.3 450.465 35.42C452.472 36.4933 454.012 38.01 455.085 39.97V34.65H463.695ZM445.985 63.7C448.878 63.7 451.118 62.6967 452.705 60.69C454.292 58.6833 455.085 55.86 455.085 52.22C455.085 48.4867 454.292 45.6167 452.705 43.61C451.118 41.6033 448.855 40.6 445.915 40.6C443.022 40.6 440.758 41.65 439.125 43.75C437.538 45.8033 436.745 48.6733 436.745 52.36C436.745 56 437.538 58.8 439.125 60.76C440.758 62.72 443.045 63.7 445.985 63.7Z" fill="#424242"/>
<path d="M92.3662 38.7003C90.4084 38.7003 88.7432 39.9718 88.1494 41.7318H82.9626C84.1077 38.2028 84.6896 34.6015 84.6896 30.9993C84.6896 19.3651 75.2245 9.89999 63.5903 9.89999C57.8232 9.89999 52.3763 12.2311 48.4078 16.3471C44.4393 12.231 38.9924 9.89999 33.2253 9.89999C21.5911 9.89999 12.126 19.3651 12.126 30.9993C12.126 33.1192 12.3272 35.2563 12.7245 37.3507C12.8705 38.1201 13.6121 38.6264 14.3821 38.48C15.1517 38.3342 15.6571 37.592 15.5114 36.8224C15.1474 34.9016 14.9626 32.9424 14.9626 30.9993C14.9626 20.9293 23.1553 12.7364 33.2255 12.7364C38.6933 12.7364 43.8285 15.1574 47.3143 19.3785C47.5837 19.7049 47.9848 19.8938 48.4078 19.8938C48.8308 19.8938 49.2319 19.7049 49.5013 19.3785C52.9873 15.1574 58.1223 12.7364 63.5901 12.7364C73.6603 12.7364 81.853 20.9291 81.853 30.9993C81.853 34.6004 81.2182 38.206 79.9679 41.7318H66.8388L63.3853 32.0625C63.1753 31.4741 62.6086 31.0919 61.9802 31.1231C61.356 31.1537 60.8254 31.5892 60.6739 32.1957L55.9865 50.945L49.7831 26.1324C49.6278 25.5116 49.0762 25.0715 48.4364 25.0585C47.7965 25.042 47.2273 25.4622 47.0467 26.0762L40.6862 47.7032L36.0982 35.0865C35.8972 34.5338 35.376 34.1624 34.7879 34.1532C34.2084 34.1414 33.6672 34.4982 33.4486 35.0444L30.7735 41.7318H8.66654C8.07298 39.9718 6.40763 38.7003 4.44975 38.7003C1.99626 38.7003 0 40.6964 0 43.15C0 45.6037 1.99626 47.5998 4.44975 47.5998C6.40763 47.5998 8.07279 46.3283 8.66654 44.5682H14.9013C19.1794 54.8546 27.7032 62.8281 34.1957 67.7562C41.3955 73.2211 47.5452 76.1429 47.8033 76.2647C48.1862 76.4451 48.6296 76.4451 49.0125 76.2647C49.2196 76.1669 54.1574 73.8231 60.3667 69.4112C70.781 62.0114 76.3632 54.7368 79.2123 49.9374C79.612 49.2638 79.3902 48.3938 78.7167 47.9941C78.0431 47.5941 77.1729 47.8163 76.7732 48.4897C68.3095 62.7473 51.7714 71.6869 48.4076 73.3988C44.7458 71.5362 25.5082 61.126 17.9945 44.5684H31.7335C32.3133 44.5684 32.8348 44.2154 33.0502 43.677L34.7023 39.5472L39.496 52.7295C39.7053 53.3053 40.2588 53.6814 40.8734 53.6623C41.4856 53.643 42.0166 53.2329 42.1895 52.645L48.2966 31.8799L54.611 57.1364C54.7687 57.7677 55.336 58.2106 55.9869 58.2106C56.6377 58.2106 57.2048 57.7676 57.3627 57.1364L62.2899 37.4277L64.504 43.6271C64.7056 44.1916 65.2404 44.5684 65.8396 44.5684H88.1494C88.743 46.3285 90.4084 47.6 92.3662 47.6C94.8197 47.5998 96.816 45.6037 96.816 43.15C96.816 40.6964 94.8197 38.7003 92.3662 38.7003ZM4.44975 44.7634C3.56007 44.7634 2.83641 44.0395 2.83641 43.15C2.83641 42.2605 3.56026 41.5367 4.44975 41.5367C5.33925 41.5367 6.0631 42.2605 6.0631 43.15C6.0631 44.0395 5.33944 44.7634 4.44975 44.7634ZM92.3662 44.7634C91.4765 44.7634 90.7529 44.0395 90.7529 43.15C90.7529 42.2605 91.4767 41.5367 92.3662 41.5367C93.2557 41.5367 93.9796 42.2604 93.9796 43.15C93.9796 44.0397 93.2557 44.7634 92.3662 44.7634Z" fill="#6562CE"/>
</svg>
